<?xml version="1.0" standalone="no"?><!DOCTYPE svg PUBLIC "-//W3C//DTD SVG 1.1//EN" "http://www.w3.org/Graphics/SVG/1.1/DTD/svg11.dtd"><svg t="1499949135964" class="icon" style="" viewBox="0 0 1024 1024" version="1.1" xmlns="http://www.w3.org/2000/svg" p-id="2147" xmlns:xlink="http://www.w3.org/1999/xlink" width="200" height="200"><defs><style type="text/css"></style></defs><path d="M567.263883 722.015613c-66.80109-63.058878-131.61493-128.378229-194.529523-195.326674-27.827648-29.611261-51.770845-63.808958-72.235842-98.974698-9.06747-15.580781-10.020164-39.922042-5.594386-58.077449 3.754491-15.40068 4.031806-23.707838-6.835651-35.244533-47.000216-49.893088-92.920849-100.802313-139.372575-151.214214-26.370467-28.618659-53.008016-56.991727-84.502151-90.821035-10.644377 29.489489-22.459411 53.30068-27.75704 78.483094-20.097632 95.539476 3.362567 185.365862 45.722113 269.801499C185.382271 646.399808 335.959992 811.126712 527.006198 938.614668c69.985603 46.702435 146.82016 78.104473 231.921965 84.430521 46.081291 3.424988 90.698239-1.462297 133.061877-30.487208L662.613025 742.513355c-39.168893 25.665413-70.277244 3.169163-95.349142-20.497742zM389.551289 273.75758c23.002783-22.549461 23.902265-39.947625 2.245122-63.695371A19299.155246 19299.155246 0 0 0 214.297688 18.030564c-20.79143-22.187213-37.998237-22.030648-60.998974-1.369177-21.10456 18.958698-41.621745 38.572308-64.870121 60.197729l236.100103 256.970327c23.394708-21.522067 44.773513-40.22187 65.022593-60.071863zM982.269749 853.545609c-58.748735-64.261257-117.68371-128.355716-177.026982-192.067461-16.623525-17.847393-36.307743-18.789853-54.662694-2.685142-23.253492 20.403599-45.387493 42.082231-68.911137 64.05762l230.654095 251.336032c23.992316-22.324335 46.438423-42.52839 68.08124-63.556202 18.529935-18.002935 19.330156-37.981864 1.865478-57.084847z" p-id="2148"></path></svg>